<svg width="37" height="38" viewBox="0 0 37 38" fill="none" xmlns="http://www.w3.org/2000/svg">
<path d="M36.9999 12.686V4.28701C36.9999 1.67852 35.8159 0.624023 32.8744 0.624023H25.4004C22.4589 0.624023 21.2749 1.67852 21.2749 4.28701V12.6675C21.2749 15.2945 22.4589 16.3305 25.4004 16.3305H32.8744C35.8159 16.349 36.9999 15.2945 36.9999 12.686Z" fill="#8969E2"/>
<path d="M36.9999 33.4984V26.0244C36.9999 23.0829 35.8159 21.8989 32.8744 21.8989H25.4004C22.4589 21.8989 21.2749 23.0829 21.2749 26.0244V33.4984C21.2749 36.4399 22.4589 37.6239 25.4004 37.6239H32.8744C35.8159 37.6239 36.9999 36.4399 36.9999 33.4984Z" fill="#8969E2"/>
<path d="M15.725 12.686V4.28701C15.725 1.67852 14.541 0.624023 11.5995 0.624023H4.1255C1.184 0.624023 0 1.67852 0 4.28701V12.6675C0 15.2945 1.184 16.3305 4.1255 16.3305H11.5995C14.541 16.349 15.725 15.2945 15.725 12.686Z" fill="#8969E2"/>
<path d="M15.725 33.4984V26.0244C15.725 23.0829 14.541 21.8989 11.5995 21.8989H4.1255C1.184 21.8989 0 23.0829 0 26.0244V33.4984C0 36.4399 1.184 37.6239 4.1255 37.6239H11.5995C14.541 37.6239 15.725 36.4399 15.725 33.4984Z" fill="#8969E2"/>
</svg>
