<svg width="31" height="26" viewBox="0 0 31 26" fill="none" xmlns="http://www.w3.org/2000/svg">
<path d="M24.6667 11.4157V14.499H30.8333V11.4157H24.6667ZM21.5833 21.6061C23.0633 22.7007 24.9904 24.1499 26.5167 25.2907C27.1333 24.4736 27.75 23.6411 28.3667 22.824C26.8404 21.6832 24.9133 20.234 23.4333 19.124C22.8167 19.9565 22.2 20.789 21.5833 21.6061ZM28.3667 3.09069C27.75 2.27361 27.1333 1.44111 26.5167 0.624023C24.9904 1.76486 23.0633 3.21402 21.5833 4.32402C22.2 5.14111 22.8167 5.97361 23.4333 6.79069C24.9133 5.68069 26.8404 4.24694 28.3667 3.09069ZM3.08333 8.33236C1.3875 8.33236 0 9.71986 0 11.4157V14.499C0 16.1949 1.3875 17.5824 3.08333 17.5824H4.625V23.749H7.70833V17.5824H9.25L16.9583 22.2074V3.70736L9.25 8.33236H3.08333ZM20.8125 12.9574C20.8125 10.9069 19.9183 9.05694 18.5 7.79277V18.1065C19.9183 16.8578 20.8125 15.0078 20.8125 12.9574Z" fill="#259EA4"/>
</svg>
