<svg width="32" height="33" viewBox="0 0 32 33" fill="none" xmlns="http://www.w3.org/2000/svg">
<path d="M12.7188 14.16C12.7188 14.9925 12.95 15.1159 13.4742 15.3009L14.2604 15.5784V12.9575H13.7979C13.2121 12.9575 12.7188 13.4971 12.7188 14.16Z" fill="#FF9900"/>
<path d="M16.5732 21.4367H17.0357C17.637 21.4367 18.1149 20.8972 18.1149 20.2343C18.1149 19.4018 17.8837 19.2784 17.3595 19.0934L16.5732 18.8159V21.4367Z" fill="#FF9900"/>
<path d="M27.1025 7.14527L23.9421 10.3057C23.7108 10.5369 23.4179 10.6449 23.125 10.6449C22.8321 10.6449 22.5392 10.5369 22.3079 10.3057C22.0929 10.0881 21.9723 9.79452 21.9723 9.48861C21.9723 9.18269 22.0929 8.88911 22.3079 8.67152L25.4683 5.51111C22.755 3.19861 19.2554 1.78027 15.4167 1.78027C6.90667 1.78027 0 8.68694 0 17.1969C0 25.7069 6.90667 32.6136 15.4167 32.6136C23.9267 32.6136 30.8333 25.7069 30.8333 17.1969C30.8333 13.3582 29.415 9.85861 27.1025 7.14527ZM18.1146 16.9194C19.1013 17.274 20.4271 17.9832 20.4271 20.2494C20.4271 22.1765 18.9008 23.7644 17.0354 23.7644H16.5729V24.1499C16.5729 24.7819 16.0488 25.3061 15.4167 25.3061C14.7846 25.3061 14.2604 24.7819 14.2604 24.1499V23.7644H14.1371C12.0867 23.7644 10.4063 22.0378 10.4063 19.9103C10.4063 19.2628 10.9304 18.7386 11.5625 18.7386C12.1946 18.7386 12.7188 19.2628 12.7188 19.8949C12.7188 20.7428 13.3508 21.4365 14.1371 21.4365H14.2604V18.014L12.7188 17.4744C11.7321 17.1199 10.4063 16.4107 10.4063 14.1444C10.4063 12.2174 11.9325 10.6294 13.7979 10.6294H14.2604V10.2594C14.2604 9.62736 14.7846 9.10319 15.4167 9.10319C16.0488 9.10319 16.5729 9.62736 16.5729 10.2594V10.6449H16.6963C18.7467 10.6449 20.4271 12.3715 20.4271 14.499C20.4271 15.1311 19.9029 15.6553 19.2708 15.6553C18.6388 15.6553 18.1146 15.1311 18.1146 14.499C18.1146 13.6511 17.4825 12.9574 16.6963 12.9574H16.5729V16.3799L18.1146 16.9194V16.9194Z" fill="#FF9900"/>
<path d="M31.8969 1.33319C31.775 1.04928 31.5487 0.823019 31.2648 0.701107C31.1262 0.651852 30.9803 0.625808 30.8332 0.624023H24.6665C24.0344 0.624023 23.5103 1.14819 23.5103 1.78027C23.5103 2.41236 24.0344 2.93652 24.6665 2.93652H28.0428L25.4682 5.51111C26.054 6.01986 26.5936 6.55944 27.1023 7.14527L29.6769 4.57069V7.94694C29.6769 8.57902 30.2011 9.10319 30.8332 9.10319C31.4653 9.10319 31.9894 8.57902 31.9894 7.94694V1.78027C31.9894 1.62611 31.9586 1.48736 31.8969 1.33319Z" fill="#FF9900"/>
</svg>
