<svg width="27" height="33" viewBox="0 0 27 33" fill="none" xmlns="http://www.w3.org/2000/svg">
<path d="M19.3114 12.1865C18.6793 12.1865 18.1551 11.6624 18.1551 11.0303V5.63444C18.1551 3.96944 17.1222 2.93652 15.4572 2.93652H10.8322C9.16719 2.93652 8.13428 3.96944 8.13428 5.63444V11.0303C8.13428 11.6624 7.61011 12.1865 6.97803 12.1865C6.34594 12.1865 5.82178 11.6624 5.82178 11.0303V5.63444C5.82178 2.68986 7.88761 0.624023 10.8322 0.624023H15.4572C18.4018 0.624023 20.4676 2.68986 20.4676 5.63444V11.0303C20.4676 11.6624 19.9434 12.1865 19.3114 12.1865Z" fill="#3491E6"/>
<path d="M6.97791 26.1078C6.67125 26.1078 6.37716 25.986 6.16032 25.7691C5.94348 25.5523 5.82166 25.2582 5.82166 24.9515C5.82166 24.6449 5.94348 24.3508 6.16032 24.1339C6.37716 23.9171 6.67125 23.7953 6.97791 23.7953H25.1079C25.5704 23.7953 25.925 23.3944 25.8787 22.9319L24.8304 14.1599C24.4604 11.169 23.9362 8.71777 18.6946 8.71777H7.59457C2.35291 8.71777 1.82874 11.169 1.47416 14.1599L0.0866593 25.7224C-0.360424 29.5149 0.811243 32.6136 6.22249 32.6136H20.0667C24.9383 32.6136 26.3721 30.1007 26.295 26.8324C26.287 26.6347 26.2017 26.4481 26.0576 26.3126C25.9135 26.1771 25.7219 26.1036 25.5242 26.1078H6.97791Z" fill="#3491E6"/>
</svg>
