<svg width="33" height="36" viewBox="0 0 33 36" fill="none" xmlns="http://www.w3.org/2000/svg">
<path d="M24.9752 22.0146C20.8867 22.0146 17.5752 25.0596 17.5752 28.8192C17.5752 32.5787 20.8867 35.6238 24.9752 35.6238C29.0637 35.6238 32.3752 32.5787 32.3752 28.8192C32.3752 25.0596 29.0637 22.0146 24.9752 22.0146ZM27.9352 31.6091C27.6577 31.8642 27.3062 31.9833 26.9547 31.9833C26.6032 31.9833 26.2517 31.8642 25.9742 31.6091L24.9937 30.7075L23.9762 31.6431C23.6987 31.8983 23.3472 32.0173 22.9957 32.0173C22.6442 32.0173 22.2927 31.8983 22.0152 31.6431C21.7572 31.403 21.6124 31.079 21.6124 30.7415C21.6124 30.4039 21.7572 30.08 22.0152 29.8399L23.0327 28.9042L22.0522 28.0026C21.7942 27.7625 21.6494 27.4386 21.6494 27.101C21.6494 26.7635 21.7942 26.4395 22.0522 26.1994C22.5887 25.7061 23.4767 25.7061 24.0132 26.1994L24.9937 27.118L25.9187 26.2675C26.4552 25.7741 27.3432 25.7741 27.8797 26.2675C28.4162 26.7608 28.4162 27.5773 27.8797 28.0707L26.9547 28.9213L27.9352 29.8229C28.4717 30.3162 28.4717 31.1157 27.9352 31.6091V31.6091Z" fill="#F75B7E"/>
<path d="M21.1981 4.11203V1.70703C21.1981 1.07495 20.6739 0.550781 20.0419 0.550781C19.4098 0.550781 18.8856 1.07495 18.8856 1.70703V4.01953H8.86477V1.70703C8.86477 1.07495 8.34061 0.550781 7.70852 0.550781C7.07644 0.550781 6.55227 1.07495 6.55227 1.70703V4.11203C2.38977 4.49745 0.370191 6.97953 0.0618572 10.6641C0.0310239 11.1112 0.401024 11.4812 0.832691 11.4812H26.9177C27.3648 11.4812 27.7348 11.0958 27.6885 10.6641C27.3802 6.97953 25.3606 4.49745 21.1981 4.11203V4.11203Z" fill="#F75B7E"/>
<path d="M24.6667 21.7485C21.2596 21.7485 18.5 24.5081 18.5 27.9152C18.5 29.0715 18.8237 30.166 19.3942 31.091C19.9377 32.0045 20.7096 32.7606 21.6341 33.285C22.5586 33.8095 23.6038 34.0841 24.6667 34.0819C26.9175 34.0819 28.8754 32.8794 29.9392 31.091C30.5096 30.166 30.8333 29.0715 30.8333 27.9152C30.8333 24.5081 28.0737 21.7485 24.6667 21.7485ZM27.8579 27.2523L24.5742 30.2894C24.3583 30.4898 24.0654 30.5977 23.7879 30.5977C23.495 30.5977 23.2021 30.4898 22.9708 30.2585L21.4446 28.7323C21.2296 28.5147 21.109 28.2211 21.109 27.9152C21.109 27.6093 21.2296 27.3157 21.4446 27.0981C21.8917 26.651 22.6317 26.651 23.0787 27.0981L23.8188 27.8381L26.2854 25.5565C26.7479 25.1248 27.4879 25.1556 27.9196 25.6181C28.3512 26.0806 28.3204 26.8052 27.8579 27.2523Z" fill="#F75B7E"/>
<path d="M26.2083 13.7935H1.54167C0.69375 13.7935 0 14.4872 0 15.3351V24.8318C0 29.4568 2.3125 32.5401 7.70833 32.5401H15.3088C16.3725 32.5401 17.1125 31.5072 16.7733 30.5051C16.465 29.611 16.2029 28.6243 16.2029 27.9151C16.2029 23.2439 20.0108 19.436 24.6821 19.436C25.1292 19.436 25.5763 19.4668 26.0079 19.5439C26.9329 19.6826 27.7654 18.958 27.7654 18.033V15.3505C27.7614 14.9388 27.5961 14.5451 27.3049 14.254C27.0138 13.9628 26.6201 13.7975 26.2083 13.7935V13.7935ZM9.57375 26.6972C9.28083 26.9747 8.88 27.1443 8.47917 27.1443C8.07833 27.1443 7.6775 26.9747 7.38458 26.6972C7.10708 26.4043 6.9375 26.0035 6.9375 25.6026C6.9375 25.2018 7.10708 24.801 7.38458 24.508C7.53875 24.3693 7.69292 24.2614 7.89333 24.1843C8.46375 23.9376 9.14208 24.0764 9.57375 24.508C9.85125 24.801 10.0208 25.2018 10.0208 25.6026C10.0208 26.0035 9.85125 26.4043 9.57375 26.6972V26.6972ZM9.57375 21.3014L9.3425 21.4864C9.25 21.548 9.1575 21.5943 9.065 21.6251C8.9725 21.6714 8.88 21.7022 8.7875 21.7176C8.67958 21.733 8.57167 21.7485 8.47917 21.7485C8.07833 21.7485 7.6775 21.5789 7.38458 21.3014C7.10708 21.0085 6.9375 20.6076 6.9375 20.2068C6.9375 19.806 7.10708 19.4051 7.38458 19.1122C7.73917 18.7576 8.27875 18.588 8.7875 18.696C8.88 18.7114 8.9725 18.7422 9.065 18.7885C9.1575 18.8193 9.25 18.8655 9.3425 18.9272L9.57375 19.1122C9.85125 19.4051 10.0208 19.806 10.0208 20.2068C10.0208 20.6076 9.85125 21.0085 9.57375 21.3014ZM14.9696 21.3014C14.6767 21.5789 14.2758 21.7485 13.875 21.7485C13.4742 21.7485 13.0733 21.5789 12.7804 21.3014C12.5029 21.0085 12.3333 20.6076 12.3333 20.2068C12.3333 19.806 12.5029 19.4051 12.7804 19.1122C13.3663 18.5418 14.3992 18.5418 14.9696 19.1122C15.2471 19.4051 15.4167 19.806 15.4167 20.2068C15.4167 20.6076 15.2471 21.0085 14.9696 21.3014V21.3014Z" fill="#F75B7E"/>
</svg>
