<svg width="18" height="22" viewBox="0 0 18 22" fill="none" xmlns="http://www.w3.org/2000/svg">
<path d="M8.78367 14.6356C11.0001 14.6356 12.7954 12.9095 12.7954 10.7783V5.47459C12.7954 3.34344 11.0001 1.61731 8.78367 1.61731C6.56721 1.61731 4.77197 3.34344 4.77197 5.47459V10.7783C4.77197 12.9095 6.56721 14.6356 8.78367 14.6356Z" stroke="#292D32" stroke-width="1.5" stroke-linecap="round" stroke-linejoin="round"/>
<path d="M1.11133 8.99435V10.6337C1.11133 14.7031 4.55136 18.0107 8.78369 18.0107C13.016 18.0107 16.4561 14.7031 16.4561 10.6337V8.99435" stroke="#292D32" stroke-width="1.5" stroke-linecap="round" stroke-linejoin="round"/>
<path d="M7.38965 5.88924C8.29228 5.57102 9.27514 5.57102 10.1778 5.88924" stroke="#292D32" stroke-width="1.5" stroke-linecap="round" stroke-linejoin="round"/>
<path d="M7.98145 7.93382C8.51299 7.79881 9.0646 7.79881 9.59615 7.93382" stroke="#292D32" stroke-width="1.5" stroke-linecap="round" stroke-linejoin="round"/>
<path d="M8.78369 18.0104V20.9033" stroke="#292D32" stroke-width="1.5" stroke-linecap="round" stroke-linejoin="round"/>
</svg>
