<svg width="18" height="22" viewBox="0 0 18 22" fill="none" xmlns="http://www.w3.org/2000/svg">
<path d="M9.01987 19.5304C6.68987 19.5304 4.35987 19.1604 2.14987 18.4204C1.30987 18.1304 0.669869 17.5404 0.389869 16.7704C0.0998691 16.0004 0.199869 15.1504 0.659869 14.3904L1.80987 12.4804C2.04987 12.0804 2.26987 11.2804 2.26987 10.8104V7.92041C2.26987 4.20041 5.29987 1.17041 9.01987 1.17041C12.7399 1.17041 15.7699 4.20041 15.7699 7.92041V10.8104C15.7699 11.2704 15.9899 12.0804 16.2299 12.4904L17.3699 14.3904C17.7999 15.1104 17.8799 15.9804 17.5899 16.7704C17.4483 17.1569 17.2208 17.5062 16.9246 17.792C16.6284 18.0778 16.2712 18.2927 15.8799 18.4204C13.6799 19.1604 11.3499 19.5304 9.01987 19.5304ZM9.01987 2.67041C6.12987 2.67041 3.76987 5.02041 3.76987 7.92041V10.8104C3.76987 11.5404 3.46987 12.6204 3.09987 13.2504L1.94987 15.1604C1.72987 15.5304 1.66987 15.9204 1.79987 16.2504C1.91987 16.5904 2.21987 16.8504 2.62987 16.9904C6.77828 18.3904 11.2715 18.3904 15.4199 16.9904C15.7799 16.8704 16.0599 16.6004 16.1899 16.2404C16.3199 15.8804 16.2899 15.4904 16.0899 15.1604L14.9399 13.2504C14.5599 12.6004 14.2699 11.5304 14.2699 10.8004V7.92041C14.2699 5.02041 11.9199 2.67041 9.01987 2.67041Z" fill="#292D32"/>
<path d="M10.8799 2.94019C10.8099 2.94019 10.7399 2.93019 10.6699 2.91019C10.3799 2.83019 10.0999 2.77019 9.82987 2.73019C8.97988 2.62019 8.15988 2.68019 7.38988 2.91019C7.10988 3.00019 6.80988 2.91019 6.61988 2.70019C6.5252 2.5967 6.4618 2.4685 6.43703 2.33045C6.41225 2.1924 6.4271 2.05015 6.47987 1.92019C6.67898 1.40623 7.02931 0.964759 7.48459 0.654093C7.93988 0.343427 8.4787 0.178185 9.02987 0.180194C10.1699 0.180194 11.1699 0.860194 11.5799 1.92019C11.6799 2.19019 11.6299 2.49019 11.4399 2.70019C11.2899 2.86019 11.0799 2.94019 10.8799 2.94019Z" fill="#292D32"/>
<path d="M9.02002 21.8101C8.03002 21.8101 7.07002 21.4101 6.37002 20.7101C5.67002 20.0101 5.27002 19.0501 5.27002 18.0601H6.77002C6.77002 18.6501 7.01002 19.2301 7.43002 19.6501C7.85002 20.0701 8.43002 20.3101 9.02002 20.3101C10.26 20.3101 11.27 19.3001 11.27 18.0601H12.77C12.77 20.1301 11.09 21.8101 9.02002 21.8101Z" fill="#292D32"/>
</svg>
