<svg width="37" height="38" viewBox="0 0 37 38" fill="none" xmlns="http://www.w3.org/2000/svg">
<path opacity="0.4" d="M28.7812 11.0522C28.6522 11.0341 28.5211 11.0341 28.3921 11.0522C27.0084 11.008 25.6968 10.4399 24.7353 9.46819C23.7738 8.49649 23.2381 7.19768 23.2417 5.84715C23.2417 2.97353 25.6317 0.624023 28.5959 0.624023C31.5416 0.624023 33.9501 2.95546 33.9501 5.84715C33.9461 7.19854 33.4054 8.49582 32.4415 9.46644C31.4777 10.4371 30.1656 11.0055 28.7812 11.0522V11.0522Z" fill="#5D9EFB"/>
<path opacity="0.4" d="M34.8208 23.5767C32.7458 24.9322 29.8371 25.4383 27.1507 25.0949C27.8547 23.6129 28.2253 21.9682 28.2438 20.2332C28.2438 18.4259 27.8362 16.7089 27.0581 15.2089C29.8 14.8474 32.7087 15.3535 34.8022 16.7089C37.7294 18.5886 37.7294 21.6791 34.8208 23.5767Z" fill="#5D9EFB"/>
<path opacity="0.4" d="M8.23485 11.0522C8.36453 11.0341 8.49422 11.0341 8.62391 11.0522C10.0076 11.008 11.3192 10.4399 12.2807 9.46819C13.2422 8.49649 13.7779 7.19768 13.7743 5.84715C13.7743 2.97353 11.3844 0.624023 8.42011 0.624023C5.47438 0.624023 3.06592 2.95546 3.06592 5.84715C3.06988 7.19854 3.61061 8.49582 4.57449 9.46644C5.53838 10.4371 6.85038 11.0055 8.23485 11.0522V11.0522Z" fill="#5D9EFB"/>
<path opacity="0.4" d="M8.43888 20.2335C8.43888 21.9866 8.82794 23.6494 9.53195 25.1494C6.9197 25.4205 4.19628 24.8783 2.19541 23.5951C-0.731802 21.6975 -0.731802 18.607 2.19541 16.7093C4.17775 15.408 6.97528 14.8839 9.60606 15.1731C8.84646 16.6912 8.43888 18.4082 8.43888 20.2335V20.2335Z" fill="#5D9EFB"/>
<path d="M18.7585 25.6916C18.5985 25.6735 18.4369 25.6735 18.2769 25.6916C16.6296 25.6376 15.0684 24.9605 13.9239 23.8035C12.7793 22.6465 12.1412 21.1004 12.1445 19.4925C12.1445 16.0587 14.9791 13.2754 18.5177 13.2754C22.0378 13.2754 24.8909 16.0587 24.8909 19.4925C24.8909 22.8541 22.186 25.5832 18.7585 25.6916V25.6916Z" fill="#5D9EFB"/>
<path d="M12.7373 29.4324C9.93978 31.2578 9.93978 34.2579 12.7373 36.0652C15.9239 38.1436 21.1484 38.1436 24.335 36.0652C27.1325 34.2398 27.1325 31.2397 24.335 29.4324C21.1669 27.354 15.9424 27.354 12.7373 29.4324V29.4324Z" fill="#5D9EFB"/>
</svg>
